<?xml version="1.0" encoding="utf-8"?>
<!-- Generator: Adobe Illustrator 18.1.0, SVG Export Plug-In . SVG Version: 6.00 Build 0)  -->
<svg version="1.1" id="Layer_1" xmlns="http://www.w3.org/2000/svg" xmlns:xlink="http://www.w3.org/1999/xlink" x="0px" y="0px"
	 viewBox="146.6 318.4 372.9 101.2" enable-background="new 146.6 318.4 372.9 101.2" xml:space="preserve">
<g>
	<path fill="#FFFFFF" d="M389.3,369.9c0-10.9-3.1-26-17.8-26c3-1.1,9-5,9-12.2c0-8.3-6.8-13.2-17.3-13.2h-11V368h-10.7v1.8h15.8
		v49.6h32v-2h-30.1l0.2-47.6h7.5V368h-12.8v-22.3h15c17.3,0,18,16.4,18,24.1L389.3,369.9L389.3,369.9z M364,343.8h-9.8v-23.3h9.5
		c9.8,0,15,4.2,15,11S371.6,343.8,364,343.8z"/>
	<polygon fill="#FFFFFF" points="440,318.4 437.1,318.4 427,343.8 407.2,343.8 407.2,345.7 426.3,345.7 416.7,369.9 418.9,369.9 
		428.6,345.7 441.2,345.7 441.2,343.8 429.3,343.8 438.6,320.6 457.6,369.9 459.8,369.9 	"/>
	<polygon fill="#FFFFFF" points="519.5,367.9 490.1,367.9 490.1,318.5 488,318.5 488,369.9 519.5,369.9 	"/>
	<path fill="#FFFFFF" d="M195.3,391.3c4-0.8,7.5-5.4,7.5-10.5c0-7.3-5.8-12.3-13.2-12.8v-14.7h7.6v-1.8h-7.6v-33.1h-2.4l-40.6,51.4
		h2.2l13.2-16.4h25.6V368h-13.9v51.4h21.7c9.9,0,16.9-4.4,16.9-14C212.4,395.9,205.6,391.2,195.3,391.3z M163.2,351.5l24.5-30.6
		v30.6H163.2z M188.4,369.9c7.3,0,12.6,4,12.6,11c0,6.9-5.8,10.5-12.6,10.5h-12.7v-21.5H188.4z M196.1,417.3h-20.5v-24h20.7
		c7.3,0,14.2,3.2,14.2,12.2C210.5,413.9,204.5,417.3,196.1,417.3z"/>
	<path fill="#FFFFFF" d="M241.4,417.3v-23.9h22.3v-2.2h-22.3v-21.3h32.3V368h-23.2c4.7-2,8.2-5.8,8.2-11.7c0-10.7-8-10.9-17.6-13.3
		c-8.8-2.1-17.3-2.2-17.3-11.5c0-9.2,8.4-11.2,15.7-11.2c9.3,0,16.2,4.1,16.2,11.8h2c0-8.5-8.1-13.6-18.1-13.6
		c-8.3,0-17.6,2.8-17.6,13.1c0,10.1,9.5,11.1,17.8,13.1c7.9,1.9,17.1,1.3,17.1,11.7c0,8.9-8.3,11.8-16.3,11.8
		c-10.9,0-18.1-4.8-18.1-14.4h-2c0,10.6,8,16,19.1,16.3v49.5H274v-2.1h-32.6V417.3z"/>
	<polygon fill="#FFFFFF" points="306.2,369.8 306.2,369.8 306.2,320.5 324.4,320.5 324.4,318.5 285.9,318.5 285.9,320.5 
		304.1,320.5 304.1,369.9 304.2,369.9 304.2,419.4 336.1,419.4 336.1,417.4 306,417.4 	"/>
</g>
</svg>
